<svg width="40" height="40" viewBox="0 0 40 40" fill="none" xmlns="http://www.w3.org/2000/svg">
<path d="M20 1.66666C23.9782 1.66666 27.7936 3.24701 30.6066 6.06005C33.4196 8.8731 35 12.6884 35 16.6667C35 22.8767 30.2667 29.3833 21 36.3333C20.7115 36.5497 20.3606 36.6667 20 36.6667C19.6394 36.6667 19.2885 36.5497 19 36.3333C9.73333 29.3833 5 22.8767 5 16.6667C5 12.6884 6.58035 8.8731 9.3934 6.06005C12.2064 3.24701 16.0218 1.66666 20 1.66666ZM20 11.6667C18.6739 11.6667 17.4021 12.1934 16.4645 13.1311C15.5268 14.0688 15 15.3406 15 16.6667C15 17.9927 15.5268 19.2645 16.4645 20.2022C17.4021 21.1399 18.6739 21.6667 20 21.6667C21.3261 21.6667 22.5979 21.1399 23.5355 20.2022C24.4732 19.2645 25 17.9927 25 16.6667C25 15.3406 24.4732 14.0688 23.5355 13.1311C22.5979 12.1934 21.3261 11.6667 20 11.6667Z" fill="#16C2F4"/>
</svg>
