<svg width="33" height="33" viewBox="0 0 33 33" fill="none" xmlns="http://www.w3.org/2000/svg">
<path d="M11 9.60162C10.6353 9.60162 10.2856 9.74649 10.0277 10.0044C9.76987 10.2622 9.625 10.612 9.625 10.9766C9.625 11.3413 9.76987 11.691 10.0277 11.9489C10.2856 12.2068 10.6353 12.3516 11 12.3516H22C22.3647 12.3516 22.7144 12.2068 22.9723 11.9489C23.2301 11.691 23.375 11.3413 23.375 10.9766C23.375 10.612 23.2301 10.2622 22.9723 10.0044C22.7144 9.74649 22.3647 9.60162 22 9.60162H11ZM9.625 16.5C9.625 16.1353 9.76987 15.7856 10.0277 15.5277C10.2856 15.2699 10.6353 15.125 11 15.125H22C22.3647 15.125 22.7144 15.2699 22.9723 15.5277C23.2301 15.7856 23.375 16.1353 23.375 16.5C23.375 16.8647 23.2301 17.2144 22.9723 17.4723C22.7144 17.7301 22.3647 17.875 22 17.875H11C10.6353 17.875 10.2856 17.7301 10.0277 17.4723C9.76987 17.2144 9.625 16.8647 9.625 16.5ZM11 20.6484C10.6353 20.6484 10.2856 20.7932 10.0277 21.0511C9.76987 21.309 9.625 21.6587 9.625 22.0234C9.625 22.388 9.76987 22.7378 10.0277 22.9956C10.2856 23.2535 10.6353 23.3984 11 23.3984H22C22.3647 23.3984 22.7144 23.2535 22.9723 22.9956C23.2301 22.7378 23.375 22.388 23.375 22.0234C23.375 21.6587 23.2301 21.309 22.9723 21.0511C22.7144 20.7932 22.3647 20.6484 22 20.6484H11Z" fill="#16C2F4"/>
<path fill-rule="evenodd" clip-rule="evenodd" d="M30.25 16.5C30.25 24.0941 24.0941 30.25 16.5 30.25C8.90588 30.25 2.75 24.0941 2.75 16.5C2.75 8.90588 8.90588 2.75 16.5 2.75C24.0941 2.75 30.25 8.90588 30.25 16.5ZM27.5 16.5C27.5 19.4174 26.3411 22.2153 24.2782 24.2782C22.2153 26.3411 19.4174 27.5 16.5 27.5C13.5826 27.5 10.7847 26.3411 8.72183 24.2782C6.65893 22.2153 5.5 19.4174 5.5 16.5C5.5 13.5826 6.65893 10.7847 8.72183 8.72183C10.7847 6.65893 13.5826 5.5 16.5 5.5C19.4174 5.5 22.2153 6.65893 24.2782 8.72183C26.3411 10.7847 27.5 13.5826 27.5 16.5Z" fill="#16C2F4"/>
</svg>
