<svg width="144" height="144" viewBox="0 0 144 144" fill="none" xmlns="http://www.w3.org/2000/svg">
<g clip-path="url(#clip0_3_513)">
<path d="M22.4 16C20.7026 16 19.0748 16.6743 17.8745 17.8745C16.6743 19.0748 16 20.7026 16 22.4V48H48V16H22.4ZM40 40H24V24H40V40Z" fill="black"/>
<path d="M16 121.6C16 123.297 16.6743 124.925 17.8745 126.125C19.0748 127.326 20.7026 128 22.4 128H48V96H16V121.6ZM24 104H40V120H24V104Z" fill="black"/>
<path d="M96 128H121.6C123.297 128 124.925 127.326 126.125 126.125C127.326 124.925 128 123.297 128 121.6V96H96V128ZM104 104H120V120H104V104Z" fill="black"/>
<path d="M121.6 16H96V48H128V22.4C128 20.7026 127.326 19.0748 126.125 17.8745C124.925 16.6743 123.297 16 121.6 16ZM120 40H104V24H120V40Z" fill="black"/>
<path d="M80 40V32H64V48H72V40H80Z" fill="black"/>
<path d="M48 48H56V56H48V48Z" fill="black"/>
<path d="M56 56H72V64H56V56Z" fill="black"/>
<path d="M80 24V32H88V16H56V32H64V24H80Z" fill="black"/>
<path d="M16 56H24V72H16V56Z" fill="black"/>
<path d="M48 64V72H40V56H32V72H24V80H16V88H32V80H40V88H48V80H56V64H48Z" fill="black"/>
<path d="M80 64H88V72H96V64H104V56H88V40H80V48H72V56H80V64Z" fill="black"/>
<path d="M72 120H56V128H88V120H80V112H72V120Z" fill="black"/>
<path d="M88 80V72H80V64H72V72H64V80H72V88H80V80H88Z" fill="black"/>
<path d="M120 80H128V88H120V80Z" fill="black"/>
<path d="M88 80H112V88H88V80Z" fill="black"/>
<path d="M120 56H112V64H104V72H112V80H120V72H128V64H120V56Z" fill="black"/>
<path d="M80 88H88V112H80V88Z" fill="black"/>
<path d="M56 112H64V104H72V96H64V80H56V112Z" fill="black"/>
</g>
<defs>
<clipPath id="clip0_3_513">
<rect width="144" height="144" fill="white"/>
</clipPath>
</defs>
</svg>
