<svg width="19" height="19" viewBox="0 0 19 19" fill="none" xmlns="http://www.w3.org/2000/svg">
<path d="M14.2746 13.1551L17.6653 16.5451L16.5451 17.6653L13.1552 14.2746C11.8938 15.2857 10.325 15.8356 8.70837 15.8333C4.77537 15.8333 1.58337 12.6413 1.58337 8.70834C1.58337 4.77534 4.77537 1.58334 8.70837 1.58334C12.6414 1.58334 15.8334 4.77534 15.8334 8.70834C15.8357 10.3249 15.2857 11.8938 14.2746 13.1551ZM12.6865 12.5677C13.6912 11.5345 14.2523 10.1495 14.25 8.70834C14.25 5.64697 11.7697 3.16668 8.70837 3.16668C5.647 3.16668 3.16671 5.64697 3.16671 8.70834C3.16671 11.7697 5.647 14.25 8.70837 14.25C10.1495 14.2523 11.5345 13.6912 12.5677 12.6865L12.6865 12.5677Z" fill="#7D7D7D"/>
</svg>
